<svg width="5489" height="1057" viewBox="0 0 5489 1057" fill="none" xmlns="http://www.w3.org/2000/svg">
<path fill-rule="evenodd" clip-rule="evenodd" d="M4600.23 5.75L4597.35 11.5L4594.69 19.557L4592.04 27.614L4589.96 37.557L4587.88 47.5L4587.36 72.202L4586.85 96.904L4588 107.202L4589.16 117.5L4591.19 129L4593.22 140.5L4595.77 149.445L4598.33 158.39L4601.3 165.369L4604.27 172.349L4606.75 176.288L4609.24 180.228L4613.27 184.598L4617.3 188.969L4616.72 190.484L4616.13 192H4614.66H4613.19L4609.38 189.828L4605.57 187.655L4598.57 182.367L4591.57 177.079L4579.43 164.16L4567.3 151.241L4562.32 143.863L4557.34 136.484L4553.35 128.492L4549.35 120.5L4547.17 113.866L4544.99 107.232L4543 105.433L4541.01 103.634L4539.63 105.067L4538.25 106.5L4536.15 113.393L4534.05 120.285L4532.96 129.893L4531.88 139.5L4532.56 149.5L4533.25 159.5L4535.11 169.643L4536.96 179.786L4538.61 186.143L4540.26 192.5L4543.55 202L4546.85 211.5L4551.31 221L4555.77 230.5L4559.37 236.42L4562.96 242.341L4570.15 245.67L4577.34 249H4578.33H4579.31L4575.84 244.75L4572.36 240.5L4567.56 233L4562.76 225.5L4558.8 217L4554.85 208.5L4551.41 198.5L4547.96 188.5L4545.45 176L4542.94 163.5L4542.36 145.004L4541.77 126.509L4543.51 127.949L4545.24 129.388L4549.14 137.132L4553.03 144.875L4557.5 151.777L4561.96 158.678L4569.08 166.301L4576.2 173.923L4584.88 180.8L4593.57 187.677L4600.05 192.029L4606.52 196.381L4624.05 206.317L4641.57 216.254L4651.15 222.559L4660.72 228.864L4668.35 235.982L4675.97 243.101L4680.35 249.3L4684.73 255.5L4690.06 265.5L4695.39 275.5L4697.31 278.262L4699.22 281.024L4700.15 280.453L4701.07 279.882V277.098V274.313L4699.1 268.571L4697.12 262.829L4693.93 257.164L4690.74 251.5L4685.36 243.789L4679.99 236.078L4672.28 227.887L4664.58 219.696L4654.07 212.598L4643.57 205.5L4635.95 197.5L4628.32 189.5L4623.14 181.173L4617.96 172.846L4614.59 165.173L4611.22 157.5L4609.12 151.88L4607.03 146.261L4604.11 134.318L4601.19 122.375L4599.69 110.937L4598.19 99.5L4597.56 87L4596.93 74.5L4598 57.947L4599.06 41.395L4599.95 36.61L4600.85 31.826L4601.87 30.798L4602.9 29.77L4604.52 32.907L4606.15 36.044L4612.02 51.376L4617.9 66.708L4621.96 74.769L4626.01 82.83L4631.67 91.165L4637.33 99.5L4647.6 110.5L4657.86 121.5L4673.22 136.44L4688.57 151.381L4706.4 169.44L4724.23 187.5L4735.45 200.5L4746.67 213.5L4752.71 221.5L4758.76 229.5L4764.52 238.446L4770.28 247.391L4774.9 256.696L4779.52 266H4780.06H4780.59L4783.69 260.846L4786.8 255.691L4782.81 247.189L4778.83 238.687L4774.29 231.593L4769.76 224.5L4760.26 212.584L4750.76 200.669L4703.13 153.084L4655.5 105.5L4647.15 95.045L4638.8 84.59L4634.26 77.545L4629.73 70.5L4624.55 59.5L4619.36 48.5L4616.72 40.5L4614.09 32.5L4610.57 18.176L4607.06 3.853L4606.03 1.926L4605 0H4604.05H4603.1L4600.23 5.75ZM4444.53 161.817L4443.81 164.5L4444.01 178.471L4444.21 192.443L4446.1 201.662L4448 210.881L4450.6 219.902L4453.19 228.922L4457.02 238.711L4460.84 248.5L4467.28 262L4473.72 275.5L4479.57 285L4485.43 294.5L4489.9 300.5L4494.37 306.5L4501.97 314.33L4509.57 322.159L4517.32 326.091L4525.07 330.022V331.492V332.962L4522.37 333.64L4519.67 334.317L4513.62 333.095L4507.57 331.872L4500.07 329.508L4492.57 327.143L4485.07 324.026L4477.57 320.909L4469.34 316.459L4461.11 312.008L4452.81 306.115L4444.52 300.222L4435.7 290.611L4426.88 281H4425.02H4423.16L4422.57 284.25L4421.97 287.5L4423.49 297.5L4425 307.5L4427.04 313.413L4429.08 319.327L4433.24 328.413L4437.41 337.5L4443.69 347.5L4449.97 357.5L4455.55 364.5L4461.14 371.5L4470.07 380.633L4479.01 389.767L4490.79 398.77L4502.57 407.773L4505 410.394L4507.43 413.015L4505.5 414.463L4503.57 415.912L4498.07 417.146L4492.57 418.38L4471.57 418.393L4450.57 418.405L4439.57 417.173L4428.57 415.942L4421.07 414.317L4413.57 412.693L4406.88 409.846L4400.18 407H4398.06H4395.94L4396.6 409.25L4397.27 411.5L4400.31 417L4403.35 422.5L4407.22 428.207L4411.09 433.914L4419.83 443.106L4428.57 452.298L4438.07 459.974L4447.57 467.65L4456.88 473.887L4466.18 480.125L4478.38 486.063L4490.57 492.002L4498.57 493.986L4506.57 495.969L4509.74 495.985L4512.91 496L4514.49 496.607L4516.07 497.214V498.48V499.745L4511.64 503.828L4507.21 507.911L4497.39 512.813L4487.57 517.715L4478.07 520.844L4468.57 523.973L4461.57 525.237L4454.57 526.5L4437.29 525.651L4420.02 524.801L4418.54 526.023L4417.07 527.245V528.179V529.113L4422.32 534.159L4427.57 539.205L4435.57 544.977L4443.57 550.75L4452.57 555.258L4461.57 559.767L4468.07 561.758L4474.57 563.749L4483.57 565.335L4492.57 566.921L4508.56 568.554L4524.55 570.188L4526.4 571.173L4528.24 572.159L4526.55 574.021L4524.87 575.884L4516.72 580.19L4508.57 584.496L4501.57 587.19L4494.57 589.883L4491.82 589.942L4489.07 590V591.313V592.626L4491.82 595.208L4494.57 597.791L4504.57 601.509L4514.57 605.227L4526.07 607.682L4537.57 610.138L4557.57 609.755L4577.57 609.373L4588.07 607.114L4598.57 604.856L4613.3 599.977L4628.04 595.099L4652.3 583.635L4676.57 572.172L4690.07 567.634L4703.57 563.097L4711.94 561.434L4720.3 559.772L4725.72 560.221L4731.14 560.67L4732.21 561.735L4733.27 562.799L4732.58 564.958L4731.9 567.117L4726.62 573.03L4721.35 578.943L4720.08 583.486L4718.8 588.029L4719.45 592.731L4720.09 597.434L4722.59 601.202L4725.08 604.971L4730.04 607.485L4735.01 610H4740.58H4746.15L4750.36 607.887L4754.57 605.774L4756.92 603.637L4759.27 601.5L4761.42 597.5L4763.57 593.5L4763.38 584.034L4763.19 574.568L4764.27 573.261L4765.35 571.955L4767.46 572.581L4769.57 573.208L4777.16 577.604L4784.75 582H4786.3H4787.86L4788.39 580.615L4788.92 579.23L4787.42 577.086L4785.92 574.943L4777.21 570.568L4768.5 566.193L4759.03 562.519L4749.57 558.846L4742.07 556.478L4734.57 554.109L4727.69 552.93L4720.82 551.75L4714.19 552.421L4707.57 553.091L4701.57 554.58L4695.57 556.068L4689.57 558.185L4683.57 560.302L4674.07 564.256L4664.57 568.209L4644.17 577.675L4623.77 587.14L4616.67 589.953L4609.57 592.765L4599.67 595.456L4589.76 598.148L4580.67 599.654L4571.57 601.161L4558.07 601.212L4544.57 601.264L4533.74 599.578L4522.9 597.893L4519.25 596.696L4515.6 595.5L4515.29 593.874L4514.97 592.248L4519.35 589.684L4523.72 587.12L4531.65 580.666L4539.57 574.213L4544.46 569.184L4549.34 564.154L4548.8 562.731L4548.25 561.309L4540.51 560.654L4532.77 560H4522.59H4512.42L4501.5 558.923L4490.57 557.846L4481.57 555.893L4472.57 553.94L4463.46 550.933L4454.35 547.927L4449.68 544.966L4445.01 542.006L4444.4 540.42L4443.79 538.833L4445.85 536.779L4447.9 534.724L4459.24 532.802L4470.57 530.881L4479.57 527.787L4488.57 524.694L4506.03 516.743L4523.49 508.792L4534.34 504.903L4545.2 501.015L4551.7 499.507L4558.2 498L4567.88 498.035L4577.57 498.07L4584.07 499.5L4590.57 500.93L4594.32 500.965L4598.07 501V499.674V498.349L4595.71 496.131L4593.35 493.914L4587.96 491.746L4582.57 489.579L4547.07 488.909L4511.57 488.24L4505.07 486.667L4498.57 485.095L4491.07 482.53L4483.57 479.966L4476.57 476.344L4469.57 472.721L4459.78 465.789L4450 458.856L4439.28 449.57L4428.57 440.283L4423.45 434.839L4418.33 429.395L4417.61 427.122L4416.89 424.849L4417.23 424.565L4417.57 424.281L4423.57 425.133L4429.57 425.985L4441.07 426.592L4452.57 427.198L4509.57 426.161L4566.57 425.124L4572.07 426.421L4577.57 427.718L4592.07 434.996L4606.57 442.274L4609.31 443.063L4612.04 443.853L4612.6 442.948L4613.16 442.043L4610.87 438.935L4608.57 435.828L4602.62 431.405L4596.67 426.982L4587.62 422.558L4578.57 418.134L4567.57 415.104L4556.57 412.075L4543.57 410.081L4530.57 408.088L4523.37 405.62L4516.17 403.153L4508.37 399.087L4500.57 395.021L4491.9 388.502L4483.23 381.983L4474.05 372.242L4464.87 362.5L4459.16 354.5L4453.46 346.5L4448.78 338.175L4444.11 329.85L4439.09 318.348L4434.07 306.847V304.388V301.93L4435.82 302.881L4437.57 303.832L4445.07 310.233L4452.57 316.634L4457.07 319.684L4461.57 322.734L4467.78 325.859L4473.98 328.983L4480.37 331.388L4486.76 333.794L4494.17 335.807L4501.57 337.82L4510.07 339.388L4518.57 340.956L4536.07 342.951L4553.57 344.946L4565.07 346.921L4576.57 348.895L4583.57 351.063L4590.57 353.231L4597.57 356.736L4604.57 360.241L4609.57 363.86L4614.57 367.478L4623.04 374.739L4631.51 382H4632.79H4634.07V380.338V378.675L4631.01 373.909L4627.96 369.143L4622.76 364.757L4617.57 360.371L4611.07 355.801L4604.57 351.23L4595.57 346.783L4586.57 342.336L4580.57 340.211L4574.57 338.085L4565.57 336.491L4556.57 334.896L4551.3 332.954L4546.03 331.012L4540.8 328.386L4535.57 325.76L4528.07 320.517L4520.57 315.273L4510.6 305.099L4500.62 294.925L4493.92 285.423L4487.21 275.922L4481.79 266.211L4476.37 256.5L4471.32 245L4466.27 233.5L4463.24 224.5L4460.22 215.5L4457.14 204.851L4454.07 194.202V191.601V189H4455.45H4456.83L4470.97 204.064L4485.11 219.128L4491.34 224.376L4497.57 229.625L4502.07 232.637L4506.57 235.649L4516.07 240.71L4525.57 245.771L4535.49 249.979L4545.41 254.188L4567.99 262.966L4590.57 271.744L4608.27 279.337L4625.96 286.929L4637.77 292.856L4649.57 298.783L4658.57 303.989L4667.57 309.195L4677.07 315.745L4686.57 322.296L4692.22 327.161L4697.88 332.027L4705.58 339.949L4713.29 347.871L4718.77 355.685L4724.24 363.5L4729.26 373.5L4734.28 383.5L4736.35 385.75L4738.42 388H4740.25H4742.07V386.313V384.627L4737.38 374.563L4732.68 364.5L4727.23 355L4721.79 345.5L4716.39 337.796L4711 330.091L4701.78 320.745L4692.57 311.399L4681.76 304.26L4670.95 297.122L4661.26 292.156L4651.57 287.191L4637.07 281.019L4622.57 274.848L4585.07 259.864L4547.57 244.881L4528.57 235.325L4509.57 225.769L4499.57 218.449L4489.57 211.128L4484.41 206.109L4479.24 201.089L4473.3 194.186L4467.36 187.283L4457.69 173.737L4448.01 160.192L4446.63 159.662L4445.25 159.133L4444.53 161.817ZM2307.57 244.612L2301.57 244.994L2286.31 246.509L2271.05 248.025L2256.76 250.484L2242.47 252.944L2226.12 257.05L2209.76 261.157L2196.23 265.632L2182.7 270.107L2170.13 275.166L2157.57 280.224L2139.57 288.941L2121.57 297.659L2108.07 305.728L2094.57 313.798L2083.57 321.495L2072.57 329.192L2061.07 338.499L2049.57 347.807L2036.83 359.7L2024.08 371.592L2013.48 383.046L2002.88 394.5L1994.64 404.729L1986.4 414.958L1978.32 426.229L1970.23 437.5L1961.56 451.837L1952.89 466.175L1944.56 482.837L1936.22 499.5L1932.08 509.935L1927.94 520.369L1923.58 533.435L1919.23 546.5L1915.17 563L1911.12 579.5L1908.65 594.661L1906.17 609.822L1904.54 626.661L1902.91 643.5L1902.9 669.5L1902.9 695.5L1904.46 711.549L1906.03 727.598L1908.56 742.512L1911.08 757.427L1915.01 772.464L1918.93 787.5L1922.11 797L1925.29 806.5L1928.81 815.5L1932.34 824.5L1938.03 836.5L1943.71 848.5L1950.51 860.5L1957.3 872.5L1966.64 886.5L1975.98 900.5L1983.49 909.894L1991 919.289L2001.61 931.094L2012.23 942.899L2021.4 951.308L2030.57 959.716L2042.07 968.926L2053.57 978.137L2063.57 984.943L2073.57 991.749L2083.07 997.534L2092.57 1003.32L2107.57 1010.98L2122.57 1018.64L2133.81 1023.33L2145.05 1028.02L2159.81 1033.06L2174.57 1038.11L2189.57 1041.95L2204.57 1045.8L2219.07 1048.39L2233.57 1050.97L2245.07 1052.44L2256.57 1053.91L2274.57 1055.08L2292.57 1056.26L2314.57 1055.65L2336.57 1055.03L2351.07 1053.49L2365.57 1051.95L2381.07 1049.45L2396.57 1046.94L2408.07 1044.36L2419.57 1041.79L2436.57 1036.95L2453.57 1032.11L2469.86 1026.56L2486.15 1021.01L2501.36 1014.87L2516.57 1008.73L2529.15 1002.44L2541.72 996.16L2551.65 990.454L2561.57 984.748L2572.57 977.249L2583.57 969.75L2592.32 962.714L2601.06 955.678L2601.32 861.096L2601.57 766.513L2642.82 740.59L2684.07 714.667V704.834V695H2526.57H2369.07L2369.09 704.75L2369.1 714.5L2422.09 738.863L2475.07 763.227V865.578V967.93L2465.32 970.987L2455.57 974.045L2441.57 977.496L2427.57 980.947L2415.07 982.923L2402.57 984.9L2389.57 985.985L2376.57 987.07L2353.07 987.674L2329.57 988.277L2314.07 987.081L2298.57 985.884L2284.07 983.43L2269.57 980.977L2258.57 978.039L2247.57 975.101L2236.07 971.13L2224.57 967.158L2212.44 961.708L2200.3 956.258L2190.94 951.004L2181.57 945.75L2172.07 939.224L2162.57 932.698L2152.19 924.186L2141.81 915.675L2131.37 905.181L2120.93 894.687L2112.53 884.479L2104.14 874.271L2096.5 863.385L2088.87 852.5L2082.37 841.574L2075.88 830.649L2069.04 817.015L2062.21 803.382L2057.25 790.941L2052.29 778.5L2048.23 765.5L2044.17 752.5L2041.68 742.5L2039.2 732.5L2036.62 719.157L2034.04 705.814L2032.11 690.657L2030.18 675.5L2029 658.582L2027.82 641.665L2028.38 613.082L2028.93 584.5L2030.43 573.5L2031.92 562.5L2033.55 553L2035.18 543.5L2038.75 529.5L2042.33 515.5L2046.17 504.345L2050.01 493.191L2055.09 481.345L2060.16 469.5L2067.12 456.856L2074.08 444.213L2081.41 433.237L2088.75 422.261L2096.62 412.381L2104.49 402.5L2117.03 389.917L2129.57 377.334L2140.07 368.987L2150.57 360.641L2163.63 352.053L2176.69 343.465L2189.63 336.804L2202.57 330.143L2215.34 325.131L2228.1 320.119L2240.34 316.556L2252.57 312.992L2264.57 310.528L2276.57 308.064L2289.07 306.306L2301.57 304.548L2331.57 304.524L2361.57 304.5L2372.98 306.307L2384.38 308.114L2395.54 310.993L2406.71 313.872L2416.89 317.929L2427.08 321.987L2438.32 327.622L2449.57 333.258L2460.57 339.59L2471.57 345.923L2481.3 352.226L2491.03 358.53L2533.82 430.015L2576.61 501.5L2586.44 501.787L2596.26 502.075L2595.62 489.287L2594.99 476.5L2592.03 392.808L2589.07 309.117V305.208V301.298L2575.82 295.031L2562.57 288.765L2547.57 282.524L2532.57 276.283L2520.07 271.661L2507.57 267.04L2499.07 264.485L2490.57 261.929L2479.07 259.028L2467.57 256.126L2454.07 253.575L2440.57 251.025L2424.57 249.034L2408.57 247.043L2394.57 245.976L2380.57 244.91L2347.07 244.57L2313.57 244.229L2307.57 244.612ZM4810.57 247.412L4805.57 248.655L4799.53 251.734L4793.5 254.813L4789.42 259.238L4785.34 263.662L4783.1 269.581L4780.86 275.5L4781.36 283.043L4781.85 290.585L4791.6 310.043L4801.34 329.5L4803.21 334.907L4805.07 340.313V344.002V347.69L4803.09 349.486L4801.1 351.283L4795.34 350.455L4789.57 349.628L4781.74 349.564L4773.91 349.5L4770.02 354L4766.13 358.5L4766.1 359.182L4766.07 359.865L4771.17 356.432L4776.27 353L4778.92 353.015L4781.57 353.03L4789.57 355.515L4797.57 358H4800.87H4804.17L4807.11 356.479L4810.05 354.959L4812.08 350.983L4814.11 347.007L4814.75 332.963L4815.39 318.92L4812.33 315.71L4809.27 312.5L4806.67 308.61L4804.07 304.721V301.419V298.118L4805.2 297.423L4806.32 296.728L4814.39 295.328L4822.45 293.928L4826.01 291.81L4829.57 289.692L4833.94 285.596L4838.32 281.5L4841.72 274.146L4845.12 266.792L4846.75 268.146L4848.38 269.5L4851.35 276L4854.31 282.5L4856.05 289.08L4857.78 295.661L4857.16 309.109L4856.53 322.557L4853.65 328.265L4850.76 333.973L4846.6 335.987L4842.44 338H4839.82H4837.19L4836.51 342.563L4835.83 347.126L4836.33 351.639L4836.84 356.152L4839.54 358.97L4842.24 361.788L4846.41 362.851L4850.57 363.914L4859.57 364.536L4868.57 365.158L4873.65 366.598L4878.72 368.039L4881.91 371.334L4885.1 374.63L4886.25 378.065L4887.4 381.5L4887.98 400L4888.57 418.5L4892.65 413L4896.73 407.5L4900.32 401L4903.91 394.5L4905.63 388.535L4907.34 382.571L4906.76 374.535L4906.17 366.5L4904.18 360.757L4902.18 355.015L4897.44 346.257L4892.69 337.5L4885.27 325.5L4877.85 313.5L4875.44 308.745L4873.03 303.99L4868.63 292.158L4864.23 280.327L4860.4 272.473L4856.57 264.62L4851.61 259.19L4846.65 253.76L4842.65 251.233L4838.65 248.707L4833.61 247.365L4828.57 246.024L4822.07 246.097L4815.57 246.17L4810.57 247.412ZM381.526 251.25L381.044 252.5L228.2 619L75.356 985.5L37.964 1005.14L0.572 1024.77L0.286 1034.39L0 1044H129.072H258.144L257.858 1034.41L257.572 1024.82L207.822 1004.69L158.072 984.557V983.923V983.289L201.378 875.895L244.683 768.5L388.341 768.247L531.998 767.993L533.018 769.898L534.037 771.804L577.136 876.652L620.235 981.5L620.404 982.347L620.572 983.193L568.572 1003.98L516.572 1024.76L516.286 1034.38L516 1044H673.572H831.144L830.858 1034.41L830.572 1024.82L791.16 1003.61L751.749 982.399L750.537 980.45L749.325 978.5L598.504 614.25L447.683 250H414.846H382.009L381.526 251.25ZM5149.32 255.878L5148.07 257.973V261.552V265.131L5149.05 266.966L5150.04 268.8L5161.8 269.435L5173.57 270.069L5183.57 271.629L5193.57 273.189L5201.32 276.166L5209.07 279.144L5214.42 284.035L5219.77 288.927L5221.55 293.577L5223.32 298.228L5222.82 304.864L5222.32 311.5L5219.54 318.385L5216.75 325.269L5210.81 334.31L5204.88 343.351L5197.99 351.598L5191.1 359.846L5066.95 492.673L4942.8 625.5L4940.39 628.099L4937.99 630.697L4940.64 642.599L4943.29 654.5L4943.98 655.773L4944.68 657.045L4958.48 643.023L4972.28 629L4972.93 629.024L4973.57 629.049L5063.24 752.274L5152.91 875.5L5172.31 903L5191.7 930.5L5200.64 943.223L5209.57 955.946L5233 988.723L5256.44 1021.5L5263.33 1030.23L5270.21 1038.95L5276.39 1044.35L5282.57 1049.75L5286.57 1051.75L5290.57 1053.75L5296.07 1054.94L5301.57 1056.12L5393.87 1055.41L5486.16 1054.7L5487.12 1052.92L5488.07 1051.13V1046.69V1042.24L5486.82 1041.21L5485.57 1040.19L5468.07 1039.1L5450.57 1038.01L5441.07 1036.46L5431.57 1034.91L5423.07 1032.32L5414.57 1029.73L5409.07 1026.69L5403.57 1023.65L5398.57 1020.13L5393.57 1016.6L5387.57 1011.57L5381.57 1006.53L5371 996.517L5360.43 986.5L5349.84 975L5339.25 963.5L5325.8 946.837L5312.35 930.174L5297.88 911.337L5283.42 892.5L5266.47 869.5L5249.52 846.5L5214.86 798.5L5180.2 750.5L5110.67 654.5L5041.13 558.5L5041.1 557.972L5041.07 557.445L5092.26 503.472L5143.44 449.5L5183.29 407.5L5223.13 365.5L5233.85 355.671L5244.57 345.841L5255.07 337.583L5265.57 329.324L5276.07 322.358L5286.57 315.391L5294.61 310.724L5302.65 306.058L5315.11 300.161L5327.57 294.264L5336.88 290.558L5346.19 286.852L5356.11 283.44L5366.02 280.029L5377.8 277.027L5389.57 274.025L5398.48 272.508L5407.38 270.991L5421.98 269.848L5436.57 268.704L5437.31 267.602L5438.04 266.5L5438.06 261.372L5438.07 256.245L5436.58 255.004L5435.08 253.762L5401.83 254.914L5368.57 256.065L5338.57 257.138L5308.57 258.211L5274.07 257.571L5239.57 256.932L5220.07 256.012L5200.57 255.092L5175.57 254.437L5150.57 253.783L5149.32 255.878ZM935.108 265.745L935.145 275.5L982.358 300.177L1029.57 324.855L1029.78 651.177L1029.98 977.5L981.778 1001.29L933.572 1025.08L933.286 1034.54L933 1044H1085.04H1237.07V1034.6V1025.21L1226.82 1021.26L1216.57 1017.31L1165.32 997.925L1114.07 978.54V709.27V440H1114.46H1114.85L1363.19 745L1611.53 1050H1637.3H1663.07V685.687V321.374L1710.32 298.366L1757.57 275.358L1757.86 265.679L1758.14 256H1607.07H1456L1456.29 265.575L1456.57 275.15L1517.82 298.325L1579.07 321.5L1579.07 569.828L1579.07 818.157L1538.15 767.828L1497.22 717.5L1309.84 487L1122.46 256.5L1028.77 256.245L935.072 255.99L935.108 265.745ZM2809.07 265.453V274.905L2857.57 298.877L2906.07 322.849L2906.01 650.175L2905.95 977.5L2857.76 1001.25L2809.57 1025L2809.29 1034.5L2809 1044H3125.54H3442.07V932.5V821H3432.57H3423.07L3383.82 899.5L3344.58 978H3187.82H3031.07V824V670L3130.32 670.031L3229.57 670.062L3259.95 719.031L3290.32 768H3299.7H3309.07V636V504L3299.82 504.013L3290.57 504.026L3262.86 549.763L3235.15 595.5L3232.13 600.255L3229.11 605.01L3130.34 604.755L3031.57 604.5L3031.32 463.247L3031.06 321.993L3171.8 322.247L3312.53 322.5L3350.77 391.5L3389.02 460.5L3398.55 460.786L3408.07 461.072V358.536V256H3108.57H2809.07V265.453ZM3596.07 265.488V274.975L3644.57 298.908L3693.07 322.84V649.99V977.139L3644.57 1001.14L3596.07 1025.15V1034.57V1044H3900.57H4205.07V908.464V772.928L4195.41 773.214L4185.76 773.5L4143.66 875.721L4101.57 977.942L3959.82 977.971L3818.07 978L3818.32 650.305L3818.57 322.61L3872.57 298.873L3926.57 275.137L3926.86 265.568L3927.14 256H3761.61H3596.07V265.488ZM4733.33 305.25L4732.34 306.5L4730.09 313L4727.85 319.5L4726.89 332.354L4725.93 345.208L4729.57 350.698L4733.22 356.188L4733.52 355.844L4733.82 355.5L4732.96 348.559L4732.1 341.618L4733 329.059L4733.91 316.5L4734.96 313.75L4736.02 311H4736.98H4737.94L4740.14 314.093L4742.34 317.186L4747.73 329.835L4753.13 342.484L4754.5 343.86L4755.88 345.237L4757.1 344.484L4758.32 343.731L4757.7 338.526L4757.09 333.321L4753.96 326.411L4750.84 319.5L4746.93 313.918L4743.02 308.336L4740.09 306.168L4737.15 304H4735.73H4734.32L4733.33 305.25ZM4754.95 375.708L4752.37 378.5L4743.78 391.062L4735.2 403.625L4730.35 413.062L4725.5 422.5L4723.62 428.467L4721.75 434.435L4721.82 441.467L4721.9 448.5L4724.39 454L4726.89 459.5L4732.06 465.254L4737.24 471.008L4744.41 476.839L4751.57 482.669L4764.07 490.958L4776.57 499.247L4780.82 503.332L4785.07 507.416V508.529V509.642L4781.07 520.256L4777.07 530.871V537.26V543.65L4779.43 550.584L4781.79 557.519L4784.43 562.51L4787.06 567.5L4786.32 561L4785.57 554.5L4785.73 547.952L4785.89 541.403L4787.07 536.952L4788.25 532.5L4793.35 524.506L4798.46 516.511V511.893V507.274L4795.04 501.887L4791.63 496.5L4785.68 489.5L4779.73 482.5L4765.15 466.157L4750.57 449.815L4749.36 447.657L4748.14 445.5L4748.11 442.446L4748.07 439.392L4750.95 434.946L4753.82 430.5L4764.95 417.568L4776.07 404.637V403.887V403.136L4772.82 400.926L4769.57 398.717L4766.79 395.608L4764.02 392.5L4762.49 389.692L4760.96 386.885L4759.24 379.9L4757.53 372.915L4754.95 375.708ZM4813.2 377.54L4809.84 379.002L4804.7 382.704L4799.57 386.405L4790.96 394.747L4782.35 403.088L4790.63 419.521L4798.9 435.954L4801.91 445.727L4804.91 455.5L4806.49 464.078L4808.07 472.656V482.959V493.261L4806.49 503.381L4804.91 513.5L4800.55 531L4796.2 548.5L4794.48 558L4792.76 567.5L4792.77 580.5L4792.79 593.5L4794.45 602L4796.11 610.5L4798.62 619.744L4801.13 628.987L4808.54 650.744L4815.95 672.5L4819.97 686.741L4823.99 700.982L4827.5 716.8L4831.01 732.619L4833 745.06L4834.99 757.5L4836.51 770L4838.03 782.5L4839.11 802.833L4840.18 823.167L4839.1 842.383L4838.03 861.599L4836.55 873.549L4835.07 885.5L4833.07 896.519L4831.07 907.537L4827.52 921.519L4823.98 935.5L4820.4 946L4816.82 956.5L4812.33 967.5L4807.84 978.5L4802.5 989L4797.17 999.5L4797.12 998.201L4797.07 996.901L4801.55 980.201L4806.03 963.5L4809.51 945.5L4812.98 927.5L4815.01 913L4817.04 898.5L4818.62 884L4820.2 869.5L4821.09 832.5L4821.98 795.5L4821 779.5L4820.02 763.5L4818.55 749.5L4817.08 735.5L4814.93 722.281L4812.78 709.063L4811.93 709.59L4811.07 710.118L4811.06 720.309L4811.05 730.5L4809.62 744.011L4808.18 757.523L4806.12 768.956L4804.06 780.389L4801.48 791.445L4798.89 802.5L4793.85 819L4788.81 835.5L4783.52 849.5L4778.24 863.5L4772.72 876.131L4767.2 888.761L4760.01 903.131L4752.82 917.5L4746.34 929L4739.85 940.5L4731.74 953.5L4723.63 966.5L4712.98 981.5L4702.34 996.5L4695.71 1004.91L4689.07 1013.33V1015.16V1016.98L4700.14 1022.53L4711.21 1028.09L4720.89 1031.6L4730.57 1035.11L4743.57 1038.47L4756.57 1041.83L4770.07 1043.86L4783.57 1045.88L4804.07 1046.56L4824.57 1047.23L4836.07 1045.57L4847.57 1043.91L4850.37 1042.82L4853.16 1041.72L4854.7 1038.11L4856.24 1034.5L4859.61 1025L4862.99 1015.5L4866.43 1003L4869.88 990.5L4872.45 978L4875.02 965.5L4876.52 956.5L4878.02 947.5L4879.51 934L4880.99 920.5L4882.16 902L4883.32 883.5L4882.7 862L4882.09 840.5L4880.58 824L4879.07 807.5L4877 793L4874.94 778.5L4871.04 759L4867.14 739.5L4862.18 721.5L4857.22 703.5L4851.79 688L4846.35 672.5L4842.63 663.5L4838.91 654.5L4832.03 640L4825.16 625.5L4820.22 616.25L4815.29 607H4816.03H4816.78L4821.26 612.75L4825.75 618.5L4832.22 627.5L4838.68 636.5L4844.22 645.5L4849.76 654.5L4856.34 667L4862.92 679.5L4868.47 692.601L4874.01 705.701L4878.15 717.495L4882.3 729.289L4885.2 739.395L4888.1 749.5L4891.12 762.281L4894.14 775.062L4896.56 788.281L4898.98 801.5L4900.49 813.5L4902 825.5L4903.14 838L4904.27 850.5L4903.81 890.5L4903.35 930.5L4900.74 951L4898.13 971.5L4897.47 975L4896.81 978.5L4897.82 977.5L4898.83 976.5L4902.34 967L4905.85 957.5L4912.39 936.5L4918.93 915.5L4923.44 898L4927.95 880.5L4930.99 866L4934.03 851.5L4936.57 836L4939.11 820.5L4941.14 802L4943.17 783.5L4943.75 759.5L4944.32 735.5L4943.21 718L4942.09 700.5L4940.55 688.5L4939 676.5L4936.47 663L4933.95 649.5L4930.95 637.5L4927.95 625.5L4923.4 611.054L4918.84 596.608L4913.4 582.554L4907.96 568.5L4897.53 547.387L4887.11 526.274L4877.48 510.387L4867.85 494.5L4863.82 486.5L4859.79 478.5L4858.38 472.503L4856.98 466.505L4857.59 462.503L4858.2 458.5L4860.34 453L4862.48 447.5L4868.4 438L4874.31 428.5L4876.69 423.126L4879.07 417.751L4879.06 411.626L4879.05 405.5L4876.5 400L4873.95 394.5L4870.3 388.238L4866.64 381.976L4865.8 382.258L4864.95 382.54L4861.14 390.976L4857.33 399.412L4854.14 403.206L4850.96 407H4850.22H4849.49L4845.67 398.522L4841.85 390.044L4838.4 385.614L4834.95 381.183L4831.03 378.592L4827.11 376L4821.84 376.039L4816.57 376.078L4813.2 377.54ZM4674.32 389.662L4673.07 390.167V396.518V402.869L4674.51 409.709L4675.95 416.548L4678.02 421.382L4680.09 426.217L4680.33 429.289L4680.57 432.361L4676.36 433.606L4672.14 434.852L4669.62 436.676L4667.11 438.5L4666.12 441.92L4665.14 445.339L4666.12 449.736L4667.11 454.133L4670.09 460.038L4673.07 465.943V467.284V468.626L4670.07 471.5L4667.07 474.374V478.063V481.751L4669.47 487.126L4671.86 492.5L4677.22 498.245L4682.57 503.99L4687.24 505.182L4691.92 506.373L4693.63 504.953L4695.34 503.534L4685.09 493.967L4674.84 484.401L4674.7 480.45L4674.57 476.5L4683.06 476L4691.55 475.5L4691.88 473.777L4692.21 472.054L4689.09 470.156L4685.97 468.258L4681.42 462.929L4676.87 457.6L4674.42 452.064L4671.97 446.528L4672.54 444.264L4673.11 442H4676.01H4678.91L4686.21 445.5L4693.52 449H4695.23H4696.95L4697.57 448.008L4698.18 447.017L4695.26 442.758L4692.34 438.5L4688.83 431.5L4685.32 424.5L4681.69 413.268L4678.07 402.037V398.518V395H4679.35H4680.63L4683.1 396.667L4685.57 398.335L4696.74 409.167L4707.92 420H4709.04H4710.16L4709.46 416.281L4708.77 412.562L4705.86 408.555L4702.96 404.547L4696.77 399.412L4690.57 394.277L4685.35 391.639L4680.14 389L4677.85 389.079L4675.57 389.158L4674.32 389.662ZM448.447 560.233L506.072 701.965V702.483V703H389.455H272.839L273.312 700.75L273.785 698.5L330.543 559.013L387.302 419.526L388.29 417.013L389.278 414.5L390.05 416.5L390.823 418.5L448.447 560.233ZM4877.77 435.75L4872.33 443.5L4870.2 447.71L4868.07 451.92V456.602V461.284L4870.08 468.017L4872.08 474.749L4874.92 481.625L4877.76 488.5L4882.56 496L4887.36 503.5L4892.81 510.5L4898.26 517.5L4913.39 533.753L4928.52 550.006L4932.65 551.582L4936.77 553.158L4941.17 551.974L4945.56 550.791L4949.28 548.896L4952.99 547H4959.56H4966.12L4973.1 550.513L4980.07 554.025V553.183V552.341L4974.45 546.129L4968.83 539.916L4964.99 537.958L4961.15 536L4956.36 536.011L4951.57 536.022L4946.66 537.511L4941.75 539H4939.12H4936.49L4932.39 534.75L4928.29 530.5L4918.37 514.5L4908.44 498.5L4903.83 489.974L4899.21 481.448L4897.07 475.739L4894.94 470.029L4892.97 463.264L4891.01 456.5L4888.98 446L4886.96 435.5L4885.98 431.75L4884.99 428H4884.1H4883.21L4877.77 435.75ZM4752.26 575.75L4754.83 578.5L4755.95 580.684L4757.07 582.869V588.26V593.651L4754.57 596.005L4752.06 598.359L4743.57 598.805L4735.09 599.25L4732.05 597.99L4729 596.729L4727.13 594.353L4725.26 591.976L4725.83 587.738L4726.39 583.5L4728.4 580.432L4730.4 577.364L4733.99 575.226L4737.57 573.089L4743.63 573.044L4749.7 573L4752.26 575.75Z" fill="white"/>
</svg>
