<svg width="501" height="500" viewBox="0 0 501 500" fill="none" xmlns="http://www.w3.org/2000/svg">
<path fill-rule="evenodd" clip-rule="evenodd" d="M63.1286 0.0743368L62.6683 0.111045L61.2299 0.232446L59.7915 0.353848L57.7777 0.640723L55.764 0.927598L54.0379 1.27247L52.3118 1.61723L50.298 2.13781L48.2843 2.6584L45.9253 3.4486L43.5663 4.23881L41.7251 4.99932L39.884 5.75983L37.4675 6.9567L35.0509 8.15357L33.4399 9.09705L31.8289 10.0406L30.1781 11.1338L28.5274 12.227L27.0711 13.3194L25.615 14.4118L23.9464 15.8021L22.2779 17.1925L19.7402 19.729L17.2024 22.2656L15.768 23.9917L14.3335 25.7178L13.3289 27.0641L12.3244 28.4103L11.0148 30.4012L9.7052 32.392L8.69199 34.1756L7.67878 35.9592L6.67972 38.0305L5.68055 40.1018L5.04201 41.6553L4.40347 43.2088L3.87 44.6905L3.33652 46.1724L2.72215 48.2578L2.10778 50.3432L1.69548 52.1269L1.28317 53.9105L0.99411 55.579L0.705048 57.2476L0.479507 59.0312L0.253965 60.8148L0.12704 62.7135L0 64.6122L0.0361327 251.202L0.0721504 437.792L0.275253 439.46L0.478241 441.129L0.77041 443.028L1.06246 444.926L1.40193 446.537L1.74139 448.148L2.20674 449.932L2.6721 451.716L3.46161 454.075L4.25112 456.434L5.01163 458.275L5.77215 460.116L6.96901 462.532L8.16588 464.949L9.10936 466.56L10.053 468.171L11.1461 469.822L12.2393 471.473L13.3317 472.929L14.4241 474.385L15.8144 476.054L17.2048 477.722L19.7414 480.26L22.2779 482.798L24.004 484.232L25.7301 485.666L27.0764 486.671L28.4226 487.676L30.4135 488.985L32.4043 490.295L34.1879 491.308L35.9715 492.321L38.0428 493.32L40.1141 494.319L41.6676 494.958L43.2211 495.597L44.7029 496.13L46.1848 496.663L48.2701 497.278L50.3556 497.892L52.1392 498.305L53.9228 498.717L55.5914 499.006L57.2599 499.295L59.0435 499.52L60.8271 499.746L62.7258 499.873L64.6245 500L251.214 499.964L437.804 499.928L439.473 499.725L441.141 499.522L443.04 499.23L444.939 498.938L446.55 498.598L448.161 498.259L449.944 497.793L451.728 497.328L454.087 496.538L456.446 495.749L458.287 494.988L460.128 494.228L462.545 493.031L464.961 491.834L466.572 490.891L468.183 489.947L469.834 488.854L471.485 487.761L472.941 486.668L474.397 485.576L476.066 484.186L477.734 482.795L480.272 480.259L482.81 477.722L484.244 475.996L485.679 474.27L486.683 472.924L487.688 471.577L488.997 469.586L490.307 467.596L491.32 465.812L492.334 464.028L493.333 461.957L494.332 459.886L494.97 458.332L495.609 456.779L496.142 455.297L496.676 453.815L497.29 451.73L497.905 449.644L498.317 447.861L498.729 446.077L499.018 444.409L499.307 442.74L499.533 440.956L499.758 439.173L499.885 437.274L500.012 435.375L499.976 248.786L499.94 62.1957L499.737 60.5272L499.534 58.8586L499.242 56.9599L498.95 55.0612L498.61 53.4502L498.271 51.8392L497.806 50.0556L497.34 48.2719L496.551 45.913L495.761 43.554L495.001 41.7128L494.24 39.8717L493.043 37.4551L491.846 35.0386L490.903 33.4276L489.959 31.8166L488.866 30.1658L487.773 28.5151L486.681 27.0588L485.588 25.6027L484.198 23.9341L482.807 22.2656L480.271 19.7279L477.734 17.1901L476.008 15.7557L474.282 14.3212L472.936 13.3166L471.59 12.3121L469.599 11.0025L467.608 9.69289L465.824 8.67968L464.041 7.66647L461.969 6.66741L459.898 5.66824L458.345 5.0297L456.791 4.39116L455.309 3.85769L453.828 3.32421L451.742 2.70984L449.657 2.09547L447.873 1.68328L446.089 1.2712L444.476 0.989507L442.862 0.707695L440.966 0.471106L439.07 0.234402L437.459 0.117259L435.848 0L249.718 0.0188719L63.5889 0.0377437L63.1286 0.0743368Z" fill="white"/>
<path fill-rule="evenodd" clip-rule="evenodd" d="M63.1286 0.0743368L62.6683 0.111045L61.2299 0.232446L59.7915 0.353848L57.7777 0.640723L55.764 0.927598L54.0379 1.27247L52.3118 1.61723L50.298 2.13781L48.2843 2.6584L45.9253 3.4486L43.5663 4.23881L41.7251 4.99932L39.884 5.75983L37.4675 6.9567L35.0509 8.15357L33.4399 9.09705L31.8289 10.0406L30.1781 11.1338L28.5274 12.227L27.0711 13.3194L25.615 14.4118L23.9464 15.8021L22.2779 17.1925L19.7402 19.729L17.2024 22.2656L15.768 23.9917L14.3335 25.7178L13.3289 27.0641L12.3244 28.4103L11.0148 30.4012L9.7052 32.392L8.69199 34.1756L7.67878 35.9592L6.67972 38.0305L5.68055 40.1018L5.04201 41.6553L4.40347 43.2088L3.87 44.6905L3.33652 46.1724L2.72215 48.2578L2.10778 50.3432L1.69548 52.1269L1.28317 53.9105L0.99411 55.579L0.705048 57.2476L0.479507 59.0312L0.253965 60.8148L0.12704 62.7135L0 64.6122L0.0361327 251.202L0.0721504 437.792L0.275253 439.46L0.478241 441.129L0.77041 443.028L1.06246 444.926L1.40193 446.537L1.74139 448.148L2.20674 449.932L2.6721 451.716L3.46161 454.075L4.25112 456.434L5.01163 458.275L5.77215 460.116L6.96901 462.532L8.16588 464.949L9.10936 466.56L10.053 468.171L11.1461 469.822L12.2393 471.473L13.3317 472.929L14.4241 474.385L15.8144 476.054L17.2048 477.722L19.7414 480.26L22.2779 482.798L24.004 484.232L25.7301 485.666L27.0764 486.671L28.4226 487.676L30.4135 488.985L32.4043 490.295L34.1879 491.308L35.9715 492.321L38.0428 493.32L40.1141 494.319L41.6676 494.958L43.2211 495.597L44.7029 496.13L46.1848 496.663L48.2701 497.278L50.3556 497.892L52.1392 498.305L53.9228 498.717L55.5914 499.006L57.2599 499.295L59.0435 499.52L60.8271 499.746L62.7258 499.873L64.6245 500L251.214 499.964L437.804 499.928L439.473 499.725L441.141 499.522L443.04 499.23L444.939 498.938L446.55 498.598L448.161 498.259L449.944 497.793L451.728 497.328L454.087 496.538L456.446 495.749L458.287 494.988L460.128 494.228L462.545 493.031L464.961 491.834L466.572 490.891L468.183 489.947L469.834 488.854L471.485 487.761L472.941 486.668L474.397 485.576L476.066 484.186L477.734 482.795L480.272 480.259L482.81 477.722L484.244 475.996L485.679 474.27L486.683 472.924L487.688 471.577L488.997 469.586L490.307 467.596L491.32 465.812L492.334 464.028L493.333 461.957L494.332 459.886L494.97 458.332L495.609 456.779L496.142 455.297L496.676 453.815L497.29 451.73L497.905 449.644L498.317 447.861L498.729 446.077L499.018 444.409L499.307 442.74L499.533 440.956L499.758 439.173L499.885 437.274L500.012 435.375L499.976 248.786L499.94 62.1957L499.737 60.5272L499.534 58.8586L499.242 56.9599L498.95 55.0612L498.61 53.4502L498.271 51.8392L497.806 50.0556L497.34 48.2719L496.551 45.913L495.761 43.554L495.001 41.7128L494.24 39.8717L493.043 37.4551L491.846 35.0386L490.903 33.4276L489.959 31.8166L488.866 30.1658L487.773 28.5151L486.681 27.0588L485.588 25.6027L484.198 23.9341L482.807 22.2656L480.271 19.7279L477.734 17.1901L476.008 15.7557L474.282 14.3212L472.936 13.3166L471.59 12.3121L469.599 11.0025L467.608 9.69289L465.824 8.67968L464.041 7.66647L461.969 6.66741L459.898 5.66824L458.345 5.0297L456.791 4.39116L455.309 3.85769L453.828 3.32421L451.742 2.70984L449.657 2.09547L447.873 1.68328L446.089 1.2712L444.476 0.989507L442.862 0.707695L440.966 0.471106L439.07 0.234402L437.459 0.117259L435.848 0L249.718 0.0188719L63.5889 0.0377437L63.1286 0.0743368ZM132.093 65.9068L132.461 66.6835L133.67 71.6316L134.879 76.5797L135.816 79.394L136.752 82.2081L138.557 86.031L140.362 89.8539L141.934 92.3076L143.505 94.7612L146.387 98.386L149.269 102.011L166.168 118.926L183.068 135.842L186.248 139.841L189.428 143.839L190.998 146.285L192.568 148.73L193.986 151.747L195.405 154.764L194.33 156.522L193.255 158.281L193.035 158.314L192.815 158.346L191.132 154.977L189.448 151.607L187.52 148.615L185.591 145.623L183.513 142.861L181.435 140.1L177.463 135.497L173.492 130.894L167.619 124.938L161.746 118.983L155.993 113.374L150.241 107.764L146.639 103.909L143.038 100.055L141.043 97.1202L139.047 94.1858L137.587 91.2652L136.126 88.3445L134.134 83.1495L132.142 77.9544L131.543 76.7609L130.944 75.5672L130.569 75.9585L130.193 76.3496L129.887 78.0757L129.582 79.8018L129.222 85.3828L128.863 90.9638L129.062 95.3365L129.262 99.7093L129.822 103.967L130.383 108.225L131.369 112.252L132.355 116.28L133.057 118.178L133.759 120.077L134.997 122.907L136.236 125.736L138.052 128.66L139.869 131.584L142.521 134.371L145.172 137.159L148.914 139.691L152.655 142.223L155.338 145.096L158.02 147.969L159.89 150.651L161.759 153.333L162.863 155.289L163.967 157.245L164.669 159.3L165.37 161.354V162.296V163.237L165.035 163.435L164.7 163.633L164.039 162.69L163.378 161.746L161.468 158.173L159.559 154.599L158.063 152.483L156.567 150.367L153.921 147.891L151.274 145.415L147.88 143.174L144.486 140.932L138.387 137.477L132.287 134.021L129.928 132.438L127.569 130.854L124.577 128.481L121.585 126.108L119.138 123.495L116.691 120.883L115.023 118.32L113.356 115.757L112.042 113.131L110.728 110.504L110.144 110.015L109.56 109.527L109.558 110.026L109.556 110.526L109.741 116.452L109.925 122.379L110.83 126.866L111.734 131.354L112.932 134.806L114.13 138.259L115.493 141.193L116.855 144.127L118.557 146.787L120.259 149.447L121.411 150.869L122.563 152.29V152.38V152.47H122.344H122.125L119.611 151.313L117.098 150.155L116.96 150.018L116.823 149.881L115.607 147.878L114.39 145.875L112.847 142.585L111.303 139.294L110.198 136.13L109.094 132.965L108.463 130.571L107.832 128.177L107.155 124.415L106.478 120.652L106.269 117.322L106.059 113.991L106.432 110.647L106.805 107.304L107.541 104.898L108.278 102.491L108.775 101.995L109.273 101.5L109.983 102.158L110.694 102.816L111.41 105.003L112.125 107.189L113.619 110.181L115.112 113.173L116.823 115.704L118.534 118.236L122.736 122.707L126.938 127.178L129.359 129.016L131.779 130.854L133.166 131.651L134.552 132.447H135.058H135.564L135.738 132.031L135.912 131.614V131.441V131.269L134.548 129.816L133.183 128.362L132.285 126.924L131.387 125.486L130.372 123.1L129.357 120.715L128.445 117.519L127.533 114.323L126.835 110.353L126.137 106.383L125.722 102.759L125.306 99.1339L125.493 90.4563L125.679 81.7787L126.374 78.4313L127.069 75.0838L127.931 72.3796L128.793 69.6754L129.903 67.4027L131.012 65.13H131.368H131.725L132.093 65.9068ZM76.3001 121.147L76.6985 121.343L80.0691 126.061L83.4397 130.779L85.6181 133.317L87.7965 135.855L89.6164 137.581L91.4364 139.307L94.831 141.786L98.2257 144.264L105.015 147.672L111.804 151.079L125.038 156.366L138.271 161.653L143.046 163.685L147.822 165.717L151.292 167.491L154.763 169.266L158.657 171.847L162.551 174.428L165.735 177.698L168.918 180.969L170.73 183.549L172.543 186.129L174.496 189.523L176.449 192.918L178.102 196.463L179.754 200.008V200.577V201.146H179.084H178.414L177.669 200.302L176.925 199.459L175.16 195.958L173.395 192.458L171.549 189.811L169.704 187.164L167.106 184.474L164.507 181.784L162.366 179.929L160.224 178.074L156.947 175.815L153.669 173.556L150.38 171.648L147.09 169.74L143.026 167.706L138.961 165.672L132.805 163.033L126.649 160.394L118.709 157.306L110.769 154.218L107.259 152.729L103.749 151.24L100.381 149.439L97.0126 147.638L95.4903 146.614L93.968 145.59L91.8091 143.765L89.6501 141.941L84.7364 136.705L79.8228 131.469L79.3294 131.434L78.836 131.399V132.391V133.382L79.9264 137.144L81.0169 140.905L82.0425 143.955L83.0679 147.004L84.8456 151.038L86.6235 155.072L88.5371 158.497L90.4509 161.922L92.7774 165.222L95.1041 168.523L98.506 172.009L101.908 175.496L104.67 177.434L107.431 179.372L109.192 180.251L110.953 181.13L112.815 181.818L114.677 182.507L117.843 183.071L121.01 183.635L123.185 184.401L125.361 185.168L128.475 186.726L131.59 188.284L133.895 189.914L136.2 191.545L137.961 193.036L139.721 194.527L140.815 196.217L141.909 197.907L141.874 198.462L141.838 199.017L141.431 199.051L141.025 199.085L138.046 196.529L135.067 193.973L133.332 192.713L131.597 191.453L129.065 190.185L126.533 188.916L124.174 188.183L121.816 187.449L117.788 186.753L113.76 186.056L107.719 185.371L101.678 184.685L98.5375 184.11L95.3972 183.535L92.8414 182.839L90.2857 182.143L87.9929 181.278L85.6999 180.413L83.5626 179.341L81.4251 178.269L79.8141 177.176L78.2031 176.084L75.5803 173.843L72.9576 171.603L72.3871 171.293L71.8166 170.982V171.871V172.76L73.5522 176.74L75.2877 180.72L76.9547 183.691L78.6215 186.661L80.6375 189.48L82.6536 192.298L85.8089 195.644L88.9642 198.991L92.0414 201.31L95.1187 203.628L97.8245 205.028L100.53 206.427L103.034 207.292L105.537 208.157L110.109 208.858L114.681 209.559L118.478 210.597L122.276 211.635L125.498 213.207L128.72 214.778L130.791 216.306L132.862 217.834L133.691 218.942L134.52 220.05L134.347 220.385L134.174 220.72L133.938 220.645L133.702 220.57L132.995 220.367L132.287 220.164L127.188 217.613L122.089 215.062L120.172 214.601L118.255 214.141L98.459 214.508L78.6634 214.875L74.4632 214.669L70.2631 214.462L68.1084 214.153L65.9535 213.844L65.8473 213.95L65.7411 214.056L66.0217 214.879L66.3024 215.702L68.1102 217.619L69.9179 219.536L73.6332 222.751L77.3487 225.965L80.7677 228.386L84.1868 230.807L86.6404 232.077L89.0941 233.346L91.8187 234.277L94.5433 235.208L96.7166 235.728L98.8899 236.247L111.331 236.485L123.772 236.722L125.696 237.495L127.619 238.269L128.428 239.05L129.238 239.832V240.281V240.73H127.981H126.724L124.353 240.213L121.983 239.695H118.591H115.199L112.984 240.213L110.769 240.731L107.029 242.067L103.289 243.404L97.1013 246.215L90.9136 249.026L87.7613 250.112L84.6089 251.197L80.6172 251.877L76.6254 252.556L75.9046 253.27L75.1838 253.985L75.3768 254.493L75.5698 255.001L75.6825 255.114L75.7954 255.227L77.3416 256.209L78.8879 257.191L82.0366 258.229L85.1852 259.268L88.3344 259.951L91.4836 260.633L95.4987 261.038L99.5138 261.444L103.3 261.448L107.086 261.452L109.427 261.659L111.767 261.866L111.87 262.029L111.973 262.191L112.047 262.572L112.12 262.952L110.466 264.641L108.812 266.329L105.989 268.635L103.166 270.942L101.644 271.835L100.122 272.728L100.181 273.012L100.239 273.296L100.297 273.574L100.354 273.852L101.591 274.264L102.829 274.675L106.511 275.25L110.193 275.826L115.12 275.827L120.047 275.828L123.175 275.306L126.303 274.785L129.748 273.857L133.192 272.929L135.663 271.959L138.133 270.988L145.682 267.496L153.23 264.005L156.188 262.78L159.146 261.554L161.251 260.803L163.357 260.051L165.601 259.497L167.844 258.943L170.088 258.736L172.332 258.53L174.749 258.949L177.165 259.367L179.754 260.188L182.344 261.008L185.681 262.304L189.018 263.6L192.03 265.107L195.042 266.614L195.578 267.365L196.114 268.117L195.952 268.606L195.789 269.096L195.262 269.13L194.734 269.165L192.106 267.64L189.478 266.114L188.681 265.852L187.883 265.589L187.871 265.616L187.858 265.644L187.481 266.087L187.105 266.531L187.186 269.836L187.268 273.142L186.494 274.565L185.719 275.989L185.01 276.658L184.3 277.328L182.719 278.131L181.138 278.935H179.179H177.22L175.489 278.068L173.758 277.201L172.885 275.862L172.012 274.523L171.787 272.888L171.561 271.254L171.999 269.667L172.436 268.081L174.3 265.995L176.164 263.909L176.396 263.165L176.629 262.422L176.253 262.038L175.877 261.655L173.968 261.495L172.059 261.334L169.204 261.907L166.349 262.481L161.631 264.051L156.913 265.621L148.29 269.692L139.668 273.763L134.424 275.479L129.18 277.196L125.613 277.96L122.046 278.725L115.026 278.851L108.007 278.978L104.037 278.134L100.067 277.29L96.4996 275.97L92.9323 274.65L91.9978 273.772L91.0633 272.893L91.0485 272.404L91.0336 271.915H91.9733H92.913L95.3392 270.985L97.7654 270.055L100.704 268.514L103.643 266.973L104.197 266.33L104.752 265.688L104.711 265.656L104.67 265.625L104.096 265.311L103.521 264.996L97.9391 264.424L92.357 263.852L89.1349 263.282L85.9129 262.712L83.6188 262.01L81.3248 261.308L78.2466 259.768L75.1685 258.228L72.3131 256.164L69.4576 254.099L67.6452 252.353L65.8328 250.606L65.8377 250.242L65.8426 249.879L66.3843 249.472L66.926 249.066L72.9097 249.368L78.8935 249.671L81.3924 249.224L83.8912 248.776L87.2564 247.676L90.6216 246.576L94.0208 244.869L97.4202 243.163L98.9449 241.758L100.47 240.354V239.867V239.381L99.9767 239.193L99.4838 239.004H98.3858H97.2879L94.3621 238.27L91.4364 237.536L87.1884 235.452L82.9404 233.368L79.6656 231.165L76.3909 228.962L73.1354 226.333L69.88 223.704L66.8495 220.527L63.819 217.351L62.3988 215.266L60.9786 213.181L59.9377 211.294L58.8969 209.407L58.6825 208.718L58.4682 208.029V207.925V207.82H59.2195H59.9707L62.2718 208.798L64.5729 209.776L67.1879 210.343L69.8028 210.911L73.4695 211.322L77.1361 211.732H84.8251H92.5142L94.3264 211.317L96.1387 210.903L96.7557 210.437L97.3728 209.971L97.3389 209.824L97.3051 209.677L96.4996 208.843L95.6941 208.009L91.5919 204.867L87.4898 201.726L84.3203 198.473L81.151 195.219L79.2666 192.86L77.382 190.501L75.1439 186.934L72.9057 183.367L71.4871 180.271L70.0684 177.175L69.3377 175.072L68.607 172.969L68.0714 169.48L67.5359 165.991L67.7359 164.811L67.9359 163.632H68.5928H69.2497L72.3391 166.998L75.4284 170.364L78.3692 172.448L81.31 174.532L84.1245 176.054L86.9389 177.575L89.6479 178.702L92.357 179.828L94.9461 180.638L97.5352 181.449L99.6394 181.882L101.744 182.316L102.689 182.091L103.634 181.865L103.666 181.35L103.698 180.835L100.937 179.419L98.1762 178.003L95.5238 175.266L92.8713 172.53L91.3001 170.411L89.7288 168.292L87.7878 165.145L85.8466 161.998L85.4316 161.175L85.0164 160.352L83.1232 156.382L81.2301 152.412L79.8557 148.911L78.4814 145.409L77.5648 142.21L76.6481 139.011L75.9711 135.7L75.294 132.39L75.2328 127.672L75.1717 122.954L75.4198 121.947L75.6679 120.94L75.7848 120.946L75.9016 120.951L76.3001 121.147ZM211.687 151.81L213.528 152.297L214.967 153.207L216.405 154.117L218.143 156.026L219.881 157.936L221.172 160.583L222.464 163.229L224.073 167.544L225.681 171.86L226.583 173.586L227.485 175.312L230.011 179.397L232.536 183.482L234.213 186.589L235.89 189.696L236.581 191.767L237.273 193.838L237.457 196.51L237.641 199.182L237.016 201.343L236.392 203.505L235.144 205.753L233.896 208.002L232.519 209.862L231.142 211.721L231.095 211.674L231.048 211.627L230.84 205.232L230.633 198.837L230.221 197.6L229.809 196.364L228.685 195.244L227.561 194.125L225.953 193.651L224.345 193.178L220.95 192.922L217.556 192.666L216.145 192.288L214.734 191.91L213.829 190.918L212.925 189.926L212.744 188.347L212.564 186.768L212.79 185.297L213.015 183.827L213.067 183.683L213.118 183.54H214.102H215.085L216.464 182.848L217.843 182.157L218.829 180.188L219.815 178.219L220.039 173.505L220.264 168.791L219.675 166.528L219.086 164.265L218.048 161.963L217.011 159.662L216.593 159.287L216.175 158.911L215.988 158.801L215.801 158.691L214.615 161.271L213.428 163.851L211.892 165.266L210.356 166.681L209.143 167.414L207.929 168.146L205.087 168.642L202.245 169.137L201.875 169.348L201.505 169.558L201.504 170.797L201.503 172.037L202.356 173.313L203.208 174.589L204.313 175.777L205.418 176.965L205.189 181.861L204.959 186.758L204.269 188.135L203.578 189.512L202.512 190.091L201.446 190.67L200.407 190.672L199.368 190.674L196.397 189.753L193.426 188.833H192.593H191.761L189.958 190.044L188.155 191.256V191.023V190.789L189.497 189.236L190.839 187.682H193.629H196.419L198.405 187.971L200.391 188.26L201.033 187.699L201.676 187.139L201.708 185.704L201.74 184.268L201.147 182.552L200.554 180.835L197.106 173.94L193.658 167.045L193.486 164.332L193.314 161.618L194.1 159.589L194.886 157.56L196.267 156.045L197.648 154.53L199.765 153.425L201.882 152.321L203.39 151.921L204.898 151.521L206.739 151.441L208.58 151.361L209.213 151.342L209.846 151.323L211.687 151.81ZM331.823 154.311L340.453 154.541L347.76 154.881L355.067 155.22L366.747 155.421L378.427 155.622L387.172 155.31L395.918 154.998L409.241 154.535L422.563 154.071L423.078 154.492L423.593 154.914V156.775V158.635L423.276 158.993L422.96 159.35L418.069 159.717L413.179 160.083L410.072 160.599L406.965 161.116L402.707 162.194L398.45 163.272L394.94 164.474L391.43 165.676L387.978 167.064L384.526 168.453L380.305 170.458L376.085 172.463L373.344 174.055L370.602 175.648L366.868 178.123L363.133 180.597L359.503 183.456L355.873 186.315L352.2 189.674L348.528 193.033L316.493 226.804L284.457 260.576L284.503 260.752L284.549 260.927L308.177 293.55L331.805 326.172L344.767 344.123L357.728 362.074L363.579 370.014L369.43 377.954L374.555 384.628L379.68 391.303L384.422 397.171L389.163 403.04L392.775 406.953L396.387 410.865L400.007 414.308L403.628 417.752L405.851 419.621L408.074 421.491L409.878 422.752L411.683 424.013L413.582 425.051L415.48 426.088L418.406 426.972L421.332 427.856L424.39 428.369L427.448 428.881L433.489 429.277L439.53 429.673L439.884 429.676L440.237 429.679L440.718 430.091L441.199 430.503V431.998V433.493L440.825 434.174L440.451 434.855L436.423 434.858L432.396 434.86L404.115 435.087L375.834 435.313L373.908 434.898L371.983 434.482L370.531 433.756L369.079 433.03L366.936 431.153L364.792 429.277L362.432 426.285L360.071 423.293L351.518 411.325L342.965 399.358L338.07 392.396L333.175 385.434L328.299 378.524L323.422 371.614L292.127 328.606L260.832 285.598L260.582 285.632L260.333 285.666L255.579 290.499L250.824 295.332L250.76 295.36L250.697 295.388L250.48 295.015L250.263 294.642L249.322 290.427L248.381 286.213L248.844 285.709L249.306 285.206L293.226 238.199L337.146 191.192L339.511 188.36L341.876 185.529L343.918 182.434L345.961 179.339L346.983 176.865L348.005 174.391L348.177 171.975L348.35 169.558L347.73 167.976L347.109 166.393L345.223 164.676L343.337 162.96L340.629 161.923L337.921 160.886L334.527 160.354L331.132 159.821L327.22 159.6L323.307 159.379L322.992 159.377L322.678 159.374L322.331 158.687L321.984 158V156.786V155.572L322.284 155.086L322.585 154.599L322.747 154.34L322.91 154.081H323.051H323.193L331.823 154.311ZM179.029 172.464L180.072 173.241L181.438 175.194L182.804 177.147L183.88 179.509L184.957 181.871L185.185 183.709L185.413 185.547L185.087 185.809L184.76 186.07L184.572 186.071L184.384 186.071L183.987 185.632L183.591 185.193L181.709 180.77L179.827 176.347L179.032 175.226L178.237 174.104H177.918H177.599L177.234 175.07L176.869 176.037L176.546 180.45L176.222 184.864L176.488 186.935L176.753 189.005L176.758 189.437L176.763 189.868H176.649H176.535L175.325 188.057L174.116 186.245L174.113 185.784L174.111 185.323L174.416 181.238L174.721 177.153L175.509 174.872L176.297 172.59L176.654 172.139L177.012 171.687H177.499H177.986L179.029 172.464ZM185.737 198.287L186.332 200.722L186.864 201.706L187.397 202.691L188.371 203.788L189.346 204.885L190.448 205.633L191.549 206.381L191.584 206.684L191.619 206.986L187.718 211.521L183.816 216.056L182.821 217.595L181.826 219.134L181.827 220.18L181.829 221.226L182.276 222.031L182.723 222.837L187.755 228.475L192.786 234.114L194.959 236.668L197.131 239.221L198.281 241.04L199.431 242.859L199.431 244.555L199.432 246.251L197.681 248.986L195.93 251.72L195.512 253.273L195.093 254.827L195.021 257.128L194.949 259.43L195.184 261.417L195.42 263.404L195.381 263.603L195.342 263.802L194.505 262.214L193.669 260.626L192.81 258.139L191.952 255.651L191.952 253.455L191.952 251.26L193.39 247.462L194.828 243.665L194.828 243.368L194.829 243.071L193.359 241.628L191.89 240.185L187.395 237.198L182.901 234.211L180.436 232.195L177.971 230.179L176.187 228.194L174.404 226.21L173.512 224.256L172.62 222.302V219.818V217.334L173.254 215.296L173.888 213.258L175.606 209.922L177.324 206.586L180.342 202.168L183.36 197.751L184.232 196.809L185.105 195.866L185.124 195.859L185.142 195.852L185.737 198.287ZM210.846 197.814L212.262 198.739L213.498 200.334L214.734 201.928L216.045 204.845L217.356 207.762H217.624H217.892L219.006 206.439L220.12 205.116L221.411 202.239L222.702 199.362L222.884 199.218L223.066 199.074L223.245 199.076L223.424 199.078L224.709 201.291L225.993 203.505L226.866 205.389L227.74 207.274V209.4V211.527L226.883 213.458L226.027 215.39L223.987 218.653L221.947 221.916L221.175 223.889L220.402 225.861L220.198 227.283L219.994 228.705L220.479 230.763L220.964 232.82L222.333 235.556L223.702 238.292L227.158 243.994L230.614 249.696L234.24 257.056L237.867 264.417L239.754 269.294L241.642 274.172L243.257 279.286L244.872 284.4L245.907 288.543L246.941 292.686L247.862 297.634L248.784 302.582L249.31 306.724L249.837 310.867L250.221 317.023L250.605 323.18L250.399 331.488L250.193 339.796L249.488 346.217L248.783 352.638L247.876 358.162L246.968 363.685L245.919 368.691L244.87 373.697L243.317 379.738L241.763 385.779L239.418 393.316L237.073 400.854L235.86 404.125L234.648 407.396L234.338 407.72L234.028 408.043L233.993 408.008L233.958 407.973L234.178 406.83L234.398 405.687L235.32 398.38L236.243 391.073L236.4 377.206L236.557 363.34L236.177 359.082L235.797 354.825L235.271 350.567L234.745 346.309L233.884 341.591L233.024 336.873L231.981 332.443L230.938 328.013L229.859 324.273L228.781 320.533L227.296 316.333L225.811 312.133L224.023 307.919L222.234 303.705L221.866 302.971L221.498 302.237L219.537 298.497L217.576 294.757L215.563 291.477L213.551 288.198L211.49 285.321L209.43 282.444L207.681 280.175L205.933 277.907L205.67 277.903L205.408 277.899L205.511 278.1L205.615 278.302L207.236 281.351L208.857 284.4L211.233 289.406L213.608 294.412L214.961 297.691L216.315 300.971L218.225 306.437L220.135 311.903L221.856 318.174L223.577 324.446L224.914 331.139L226.252 337.832L226.988 342.996L227.724 348.159L228.252 353.877L228.78 359.594L229.004 367.163L229.228 374.732L228.826 381.119L228.424 387.505L227.905 392.281L227.385 397.056L226.818 400.451L226.25 403.846L225.383 408.046L224.516 412.246L223.297 416.675L222.078 421.103L220.936 424.327L219.793 427.55L219.26 428.816L218.727 430.082L218.602 430.209L218.476 430.337L217.671 430.656L216.865 430.976L212.78 431.583L208.695 432.189L201.618 431.965L194.541 431.741L189.823 431.048L185.105 430.356L180.411 429.151L175.716 427.946L172.528 426.799L169.34 425.652L165.227 423.612L161.113 421.572V420.957V420.342L163.446 417.387L165.779 414.432L169.531 409.139L173.283 403.846L176.152 399.243L179.021 394.64L181.156 390.842L183.29 387.045L185.772 382.154L188.254 377.264L190.289 372.603L192.324 367.943L194.211 362.952L196.097 357.96L197.875 352.135L199.653 346.309L200.527 342.57L201.402 338.83L202.138 334.745L202.875 330.66L203.397 325.761L203.92 320.862V317.453V314.045L204.178 313.864L204.436 313.683L204.516 313.943L204.596 314.204L205.293 318.519L205.989 322.835L206.507 327.736L207.026 332.637L207.376 338.207L207.726 343.778L207.429 356.608L207.132 369.439L206.556 374.79L205.981 380.141L205.29 385.089L204.599 390.037L203.341 396.538L202.084 403.04L200.528 408.823L198.972 414.605L198.975 414.979L198.979 415.353L199.156 415.123L199.333 414.893L201.095 411.383L202.856 407.873L204.376 404.147L205.895 400.421L207.144 396.761L208.394 393.101L209.659 388.117L210.924 383.133L211.62 379.278L212.316 375.423L212.831 371.223L213.346 367.022L213.718 360.311L214.09 353.599L213.716 346.502L213.341 339.405L212.779 334.802L212.216 330.199L211.526 325.942L210.835 321.684L209.633 316.271L208.432 310.859L206.984 305.742L205.537 300.626L203 293.203L200.464 285.781L199.557 282.444L198.65 279.107L198.063 276.1L197.476 273.093V268.563V264.033L198.059 260.811L198.642 257.589L200.191 251.317L201.739 245.046L202.312 241.399L202.884 237.753V234.38V231.006L202.315 227.922L201.746 224.838L200.76 221.593L199.774 218.349L196.812 212.384L193.851 206.419L196.785 203.554L199.72 200.688L201.618 199.32L203.517 197.951L204.725 197.424L205.933 196.896L207.682 196.892L209.431 196.888L210.846 197.814ZM159.82 202.398L161.631 203.305L163.817 205.119L166.003 206.933L167.015 208.326L168.026 209.718L168.08 209.949L168.134 210.179L168.306 211.099L168.477 212.02V212.164V212.308H168.083H167.689L163.809 208.539L159.928 204.77L159.027 204.166L158.127 203.562H157.721H157.315V204.841V206.121L158.54 209.933L159.765 213.746L161.058 216.335L162.352 218.924L163.337 220.362L164.323 221.8L164.122 222.146L163.92 222.492L163.351 222.524L162.781 222.557L160.137 221.283L157.492 220.009L156.519 220.042L155.546 220.075L155.348 220.859L155.151 221.643L156.034 223.621L156.918 225.598L158.469 227.416L160.02 229.234L161.147 229.928L162.273 230.621L162.219 230.814L162.166 231.007L162.09 231.381L162.015 231.755L161.765 231.807L161.515 231.859L158.767 231.999L156.018 232.139L156.091 233.069L156.163 233.999L156.164 234.472L156.165 234.945L159.739 238.269L163.313 241.594L162.763 242.083L162.212 242.572H162.052H161.892L160.841 242.291L159.789 242.01L159.311 241.886L158.832 241.763L156.96 239.748L155.088 237.734L154.245 235.836L153.403 233.937V232.7V231.462L154.439 230.432L155.474 229.401V228.856V228.311L154.485 226.405L153.496 224.5L153.159 223.044L152.822 221.587L152.801 221.344L152.781 221.101L153.116 219.967L153.451 218.833L154.31 218.197L155.17 217.562L156.616 217.133L158.063 216.704L158.035 215.628L158.006 214.552L157.269 212.825L156.532 211.099L156.003 208.59L155.474 206.081V204.011V201.94L155.963 201.718L156.452 201.496L157.23 201.493L158.009 201.491L159.82 202.398ZM229.967 215.789L230.14 216.393L230.314 217.083L230.488 217.774L231.188 221.398L231.887 225.023L232.586 227.44L233.286 229.856L234.066 231.927L234.847 233.999L236.507 237.048L238.167 240.098L241.595 245.618L245.022 251.138L246.421 252.6L247.82 254.062L248.723 254.07L249.626 254.079L251.329 253.561L253.033 253.043L254.799 253.045L256.565 253.047L257.889 253.727L259.212 254.407L261.197 256.606L263.182 258.806V259.031V259.257H263.057H262.933L260.601 258.049L258.269 256.841H255.988H253.708L252.432 257.493L251.157 258.145L249.563 258.582L247.969 259.018L246.523 258.476L245.077 257.934L239.77 252.238L234.464 246.542L232.5 244.01L230.537 241.478L228.904 238.926L227.272 236.374L226.293 234.009L225.314 231.644L224.571 229.173L223.827 226.702V225.134V223.565L224.655 221.996L225.484 220.427L227.319 217.806L229.155 215.184H229.475H229.795L229.967 215.789ZM179.293 266.039L177.969 266.104L176.812 266.787L175.656 267.471L174.949 268.533L174.243 269.594L174.064 270.874L173.886 272.153V272.425V272.697L174.509 273.494L175.133 274.291L176.178 274.724L177.223 275.157L180.216 275.011L183.209 274.865L184.071 274.071L184.933 273.277V271.327V269.377L184.574 268.666L184.215 267.954L183.287 266.943L182.359 265.931L181.488 265.953L180.617 265.974L179.293 266.039Z" fill="black"/>
</svg>
